<?xml version="1.0" encoding="utf-8"?>
<!-- Generator: Adobe Illustrator 19.0.0, SVG Export Plug-In . SVG Version: 6.00 Build 0)  -->
<svg version="1.1" xmlns="http://www.w3.org/2000/svg" xmlns:xlink="http://www.w3.org/1999/xlink" x="0px" y="0px"
	 viewBox="0 0 150 50" style="enable-background:new 0 0 150 50;" xml:space="preserve">
<style type="text/css">
	.st0{display:none;}
	.st1{display:inline;fill:#858585;}
</style>
<g id="레이어_2" class="st0">
	<rect x="-227.6" y="-125.8" class="st1" width="601.3" height="318"/>
</g>
<g id="레이어_1">
	<g>
		<path d="M21,1.5c0.1,0.1,0.2,0.2,0.3,0.3C23.1,2.3,24,4.3,24,5.7c0,0.7,0.1,1.4,0,2.1c-0.1,0.6-0.3,1.2-0.6,1.7
			c-0.3,0.4-0.7,0.8-1.1,1.1c-1.4,0.8-2.8,1.1-4.4,0.7c-1.8-0.4-2.8-2-2.2-3.8c0.2-0.6,0.2-1.1-0.5-1.4c-0.6-0.3-1,0-1.4,0.5
			c-0.7,1.1-1,2.4-0.9,3.7c0,1.4,0.1,2.9,0.4,4.3c0.2,0.9-0.1,1.6-0.3,2.4c-0.1,0.5-0.4,1.1-0.3,1.6c0.2,1.2,0.3,2.4,0.1,3.6
			c-0.1,0.7,0.2,1,1,1.1c2.1,0.2,4.1,0.7,6.2,0.4c1-0.1,1.5,0.5,1.5,1.5c0,0.7,0,1.4,0.1,2c0.1,1-0.4,1.8-1.5,1.9
			c-0.6,0.1-1.2,0.2-1.8-0.2c-0.2-0.1-0.7-0.1-0.9,0c-0.7,0.4-1.3,0.1-2,0.1c-1.5-0.1-3-0.2-4.5-0.1c-1.4,0.2-2.7,0.2-4,0.1
			c-1-0.1-2.1-0.6-3.1,0c-0.1,0.1-0.5-0.1-0.7-0.3c-0.2-0.1-0.4-0.3-0.6-0.5c0-0.2,0-0.4,0-0.6c0.6-0.5,0.6-1.1,0.5-1.8
			c-0.1-0.8,0.1-1.5,0.8-1.9c0.6-0.3,1.3-0.4,1.9-0.3c1.6,0.3,3.1,0.4,4.7,0.2c0.7-0.1,1.1-0.4,0.9-1.1c-0.2-0.8,0.3-1.8-0.5-2.5
			c-0.1-0.1,0-0.3,0.1-0.4c0.2-0.8,0.4-1.6,0.4-2.4c0-0.9-0.2-1.8-0.3-2.7c0-0.4,0.1-0.8,0.2-1.2c0-0.2,0.2-0.5,0.1-0.7
			c0-0.8,0.3-1.7-0.5-2.3c0,0-0.1-0.2,0-0.2c0.5-0.7-0.2-1.3-0.3-1.9c0-0.2-0.1-0.6-0.2-0.7C9.9,7.3,9.4,7.1,8.9,7
			C7.8,7,6.6,6.9,5.4,6.9c-1.3,0-2.1-0.8-2-2.1c0-0.3,0.1-0.7,0.2-1c0.3-1.6,1.3-2.3,2.9-2c1,0.2,2,0,2.9-0.4c0.2,0,0.4,0,0.6,0
			c0.3,0.1,0.5,0.2,0.8,0.2c1.6-0.2,1.8,0,1.7,1.4c-0.1,1,0,1.9,0,2.9c0,0.2,0.2,0.4,0.3,0.6c0.2-0.1,0.4-0.2,0.5-0.4
			c0.2-0.4,0.3-0.8,0.5-1.2c0.6-1.2,1.1-2.5,2.6-2.9c0.5-0.1,1-0.3,1.6-0.5C18.9,1.5,20,1.5,21,1.5z"/>
		<path d="M147.5,21.2c-0.1,0.4-0.3,0.9-0.3,1.3c0,1.2-0.8,1.9-1.4,2.8c-0.5,0.7-1.1,1.3-1.6,2c-0.8,0.9-1.9,1-2.9,1.1
			c-0.7,0.1-1.3,0.2-2,0.5c-1.2,0.5-2.5,0.8-3.8,0.3c-0.1,0-0.2-0.1-0.4-0.1c-1.2,0.1-2.1-0.6-3.1-0.9c-1-0.3-1.6-1-2.2-1.8
			c-0.2-0.3-0.3-0.6-0.6-0.8c-1.5-1.1-1.9-2.7-2.5-4.3c-0.1-0.3,0.3-0.8,0.5-1.3c0.1-0.3,0.4-0.5,0.4-0.7c-0.2-1.5,0.2-2.7,1.2-3.8
			c0.2-0.2,0.5-0.4,0.6-0.7c0.4-0.9,1.3-1.2,2.1-1.6c0.8-0.4,1.6-0.7,2.4-1.1c0.7-0.3,1.4-0.5,2.2-0.4c0.7,0.2,1.6,0,2.3,0
			c0,0,0,0,0.1,0c1.2-0.4,2,0.7,3.1,0.7c1.2-0.1,2,0.5,2.6,1.5c0.1,0.2,0.4,0.3,0.7,0.4c0.7,0.3,1.3,0.6,1.5,1.4
			c0.3,1,0.7,2,1.1,2.9C147.5,19.6,147.5,20.4,147.5,21.2z M137.1,13.7c-1.2,0.6-2.8,0.5-3.6,1.9c-0.4,0.8-1,1.5-1,2.6
			c0,0.7,0,1.6-0.4,2.1c-1,1.3-0.5,2.5,0,3.6c0.3,0.7,0.8,1.5,1.7,1.6c0.8,0.1,1.1,0.5,1.4,1.2c0.1,0.4,0.4,0.9,1,0.7
			c0.6-0.2,1.2-0.5,1.8-0.8c0.8-0.5,1.5-1,2.3-1.5c1.1-0.7,2-1.6,2.8-2.7c0.2-0.3,0.5-0.7,0.4-1c-0.2-0.9-0.6-1.8-0.9-2.7
			c-0.1-0.3-0.3-0.6-0.4-1c-0.2-0.6-0.3-1.4-0.8-1.9c-0.6-0.7-1.5-1.2-2.3-1.6C138.4,14,137.7,13.9,137.1,13.7z"/>
		<path d="M89.2,48.5c-0.4-0.4-0.8-0.7-1.3-1.2c0.4-0.2,0.6-0.3,0.8-0.4c0,0.1,0,0.1,0,0.2c0.4,0.2,0.9,0.5,1.3,0.5
			c0.2,0,0.7-0.3,0.7-0.6c0.1-0.3-0.1-0.7-0.3-0.9c-0.4-0.3-0.9-0.5-1.3-0.7c-0.8-0.5-1-1-0.8-1.8c0.2-0.7,0.7-1.1,1.5-1.1
			c0.9-0.1,1.5,0.2,1.8,0.9c-0.3,0.3-0.6,0.4-1,0.1c-0.4-0.3-0.9-0.3-1.2,0.2c-0.3,0.5,0,0.9,0.4,1.1c0.4,0.2,0.7,0.3,1.1,0.6
			c1.3,0.8,1.3,2.3,0,3c-0.1,0-0.2,0.1-0.2,0.2C90.1,48.5,89.7,48.5,89.2,48.5z"/>
		<path d="M48.5,12c0.6-0.1,1.2-0.1,1.7-0.2c0.5,0,0.8,0.3,0.8,0.8c0,0.5,0,0.9,0,1.4c0.1,0.7,0.4,0.8,1,0.5
			c0.3-0.2,0.6-0.4,0.9-0.7c1.2-1,2.6-1.3,4-1.7c0.3-0.1,0.6,0,0.9,0.1c1.4,0.5,3.1,0,4.3,1.1c0.8,0.8,2.1,0.9,2.6,2.1
			c0.2,0.5,0.5,0.9,0.8,1.4c0.3,0.5,0.8,0.9,0.5,1.7c-0.2,0.3,0.1,0.9,0.1,1.3c0,1.9-0.4,3.8-1.5,5.3c-0.9,1.2-2,2.4-3.7,2.7
			c-0.8,0.2-1.5,0.8-2.4,0.8c-1.4,0-2.6-0.4-3.9-0.7c-1.1-0.3-1.7-1.1-2.6-1.6c-0.3-0.2-0.7-0.2-1.1-0.2c-0.1,0.3-0.1,0.6-0.2,0.8
			c0,1.2-0.1,2.4,0,3.6c0,0.7,0.2,1.4,0.3,2c0.2,0.7,0.6,1.1,1.3,1.1c0.3,0,0.6,0.1,0.8,0.1c1.3,0.1,1.7,1.1,2.1,2.1
			c0.3,0.8-1.3,2.1-2.2,1.8c-1.4-0.4-2.7-0.6-4.1-0.3c-1.1,0.2-2.2,0.2-3.3,0.2c-0.1,0-0.3,0-0.4-0.1c-0.7-0.6-1.5-1.1-2.2-1.8
			c-0.5-0.6-0.3-1.6,0.5-2.2c0.8-0.6,1.5-1.2,2.7-1.2c1.1,0.1,2.1-0.7,2.8-1.6c0.2-0.2,0.2-0.5,0.2-0.8c0-1.3,0-2.7,0.1-4
			c0-1.3,0.4-2.7-0.1-3.8C49,20.9,49,20,49,18.9c0-0.8-1.2-2-2-2c-0.2,0-0.3,0.1-0.5,0.1c-0.6,0.4-1.2,0.2-1.6-0.4
			c-0.4-0.5-1-0.9-1-1.7c-0.1-1.1,0.5-2.2,1.6-2.5c1-0.3,2-0.5,2.9-0.7C48.4,11.8,48.5,11.9,48.5,12z M56.4,13.6
			c-0.2,0-0.3,0.1-0.4,0.1c-2.2,0.5-4.2,3-4.3,5.2c0,0.3-0.1,0.7-0.2,1c-0.5,1.5-0.2,2.7,1,3.8c0.3,0.2,0.5,0.5,0.8,0.8
			c1,1.3,2.5,1.5,4,1.8c0.2,0,0.4-0.1,0.6-0.2c0.5-0.3,0.9-0.6,1.4-0.8c1.1-0.7,2-1.5,2.4-2.8c0.2-0.7,0.5-1.5,0.8-2.2
			c0.4-0.8,0.3-1.5-0.4-2.1c-0.5-0.4-1.1-0.8-1.3-1.4c-0.6-1.6-2-2.2-3.4-2.7c-0.1,0-0.2-0.1-0.3-0.2C56.8,13.7,56.6,13.7,56.4,13.6
			z"/>
		<path d="M114.1,10c0-0.9,0-1.9,0-2.8c0-0.7,0.5-1.2,1.4-1.1c0.8,0,1.2,0.4,1.1,1.2c-0.1,0.8-0.2,1.6-0.4,2.4
			c-0.4,2.2,0.2,2.7,2.1,2.9c2.1,0.2,4.1,0.2,6.1-0.8c0.6-0.3,1,0,1.2,0.4c0.1,0.3,0.1,0.8,0,1.1c-0.2,0.7-0.9,1-1.5,1.3
			c-0.7,0.3-1.3,0.9-1.7,1.5c-1,1.3-2.3,1.8-3.8,1.4c-0.7-0.2-1.6-0.6-2.3,0.1c-0.1,0.1-0.4,0.3-0.4,0.4c-0.1,1.2-0.4,2.5,0,3.8
			c0.6,1.6,1.8,2.2,3.3,2.4c0.7,0.1,1.4,0.3,2,0.5c0.6,0.2,1.2,0.5,1.8,0.8c0.5,0.2,0.7,0.6,0.4,1.1c-0.2,0.5-0.4,1.1-0.6,1.6
			c-0.2,0.4-0.4,0.6-0.9,0.6c-0.7,0-1.4,0.1-2,0.4c-1.2,0.7-2.2,0.3-3.3-0.3c-0.4-0.2-1-0.3-1.4-0.3c-1.3,0.1-2.6,0.3-4,0.4
			c-0.3,0-0.7-0.1-0.9-0.3c-1-1.1-0.9-3.3,0.2-4.4c0.2-0.2,0.5-0.4,0.8-0.3c0.8,0.2,1.4-0.4,2-0.7c0.2-0.1,0.4-0.3,0.4-0.5
			c0.2-1.3,0.6-2.6,0.3-4c-0.2-0.8-0.7-1-1.4-1c-0.9,0-1.5-0.2-1.9-1.1c-0.1-0.2-0.4-0.3-0.6-0.4c-1.7-0.5-2.1-1.6-1.2-3.2
			c0.7-1.2,1.7-0.8,2.6-1c0.5-0.1,1.1,0.1,1.7,0c0.5-0.1,1-0.4,0.9-1.1C114.1,10.7,114.1,10.4,114.1,10z"/>
		<path d="M78.9,29.1c-0.6-0.1-1.2-0.2-1.8-0.2c-0.4,0-0.8,0-1.2,0.1c-0.5,0.2-1,0.1-1.4-0.2c-0.2-0.2-0.5-0.4-0.8-0.4
			c-2-0.6-3.2-2.2-3.9-4c-0.7-1.7-1.4-3.6-0.5-5.5c0.4-0.9,0.5-1.9,1.1-2.6c0.8-1.1,1.7-2.2,3.2-2.5c0.3,0,0.7-0.1,0.8-0.3
			c1-1.1,2.5-0.9,3.8-1.3c0.4-0.2,1.1,0.1,1.6,0.3c1.7,0.6,3.4,1.1,4.7,2.4c0.7,0.7,1.2,1.6,1.8,2.4c0.3,0.4,0.5,1,0.7,1.4
			c0.5,0.9,0.2,1.7-0.8,2.1c-1.3,0.6-2.7,0.6-4,0.3c-0.3-0.1-0.6,0-0.8,0.1c-1.7,0.3-3.4,0.7-5.2,0.5c-0.9-0.1-1.9,0.3-2.8,0.7
			c-0.5,0.2-0.5,0.8-0.1,1.1c0.9,0.7,1.2,1.6,1.1,2.8c0,0.3,0.6,0.8,1,0.9c1.5,0.3,3,0.6,4.5,0.8c1.3,0.1,1.8-0.5,1.9-1.8
			c0.1-1.3,0.9-2.4,2.4-2.5c0.6,0,1.2-0.1,1.7,0c0.7,0.1,1,0.6,0.7,1.2c-0.5,1.1-0.9,2.3-2.2,2.8c0,0,0,0-0.1,0
			c-0.8,0.6-1.4,1.4-2.5,1.4C80.9,28.8,80,29,78.9,29.1z M82,17.6c-0.3-1.2-1-2.3-2.1-3.3c-1.2-1-2.2-1-3.3,0.1
			c-0.4,0.3-1,0.5-1.2,0.9c-0.6,1.3-1,2.6-1.5,3.9c-0.1,0.4,0,0.8,0.5,0.8c0.5,0,0.9,0,1.4,0.1c0.8,0.2,1.4,0,2.2-0.3
			c0.6-0.3,1.3-0.4,2-0.4C80.9,19.4,81.9,18.7,82,17.6z"/>
		<path d="M94,9.2c0.1-0.7,0.2-1.5,0.3-2.2c0.1-0.6,0.6-0.8,1.1-0.5c0.9,0.7,1.3,1.6,1,3c-0.1,0.5-0.3,1.1-0.3,1.6
			c-0.1,0.7,0.7,1.4,1.3,1.4c0.9-0.1,1.8-0.2,2.7-0.3c0.4,0,0.8,0,1.2,0c0.4,0,0.9,0,1.3,0c0.8-0.2,1.6,0.2,1.9,1
			c0.2,0.7-0.3,1.1-0.8,1.4c-1,0.5-2,0.9-3,1.3c-0.3,0.1-0.5,0.3-0.8,0.4c-0.7,0.3-1.4,0.7-2.1,0.9c-1.2,0.3-1.3,0.4-1.4,1.7
			c0,0.4-0.2,0.8-0.2,1.2c0,1.7,0.3,3.3,1.8,4.3c0.7,0.5,1.6,0.8,2.4,1.1c0.2,0.1,0.6-0.3,0.9-0.4c0.2-0.1,0.5-0.2,0.7-0.2
			c0.5,0.1,1,0.3,1.5,0.5c0.2,0.1,0.3,0.1,0.5,0.3c0.7,0.8,0.2,1.7,0,2.5c-0.1,0.6-0.6,0.8-1.2,0.8c-1,0-2,0-3,0
			c-0.7,0-1.3,0.2-2,0.2c-0.3,0-0.6,0-0.8,0c-1.4-0.1-2.7-0.3-4.1-0.4c-0.2,0-0.4,0.1-0.6,0.1c-0.9,0.3-1.7-0.1-1.6-1.1
			c0-0.8,0.1-1.5,0.3-2.2c0.2-0.7,0.8-1.1,1.5-1.1c1.4,0.1,2-0.7,2.4-1.9c0.3-1.2,0.8-2.5,0-3.7c0-0.1,0-0.2-0.1-0.3
			c-0.1-1.5-0.8-1.9-2.2-1.5c-1.6,0.5-2.7,0-3.6-1.4c0-0.1-0.1-0.1-0.1-0.2c0.2-0.9,0.3-1.7,0.6-2.6c0.2-0.6,1.3-0.8,2.3-0.6
			c1.2,0.3,2.4-0.6,2.4-1.9C94.1,10,94.1,9.6,94,9.2C94.1,9.3,94.1,9.2,94,9.2z"/>
		<path d="M25.3,19.9c0.2-0.6,0.4-1.3,0.7-2c0.4-0.8,0.7-1.7,1.2-2.4c0.5-0.7,1.2-1.4,1.9-2c1.4-1.1,3.3-1.2,5-1.8
			c1.4-0.5,2.4,0.1,3.6,0.4c0.3,0.1,0.6,0,0.9,0.1c0.2,0,0.3,0.1,0.4,0.1c1.1,1.1,2.4,2.1,3,3.6c0.5,1.1,1.1,2.1,0.8,3.6
			c-0.3,1-0.9,1-1.6,1.1c-0.7,0.2-1.5,0.3-2.2-0.1c0,0,0,0-0.1,0c-1.2,0.1-2.4,0.2-3.6,0.3c-0.3,0-0.7,0-1,0c-1.4,0-2.9,0-4.2-0.5
			c-0.6-0.2-0.9,0.2-0.9,0.9c0,1.2,0.7,2.1,0.9,3.2c0,0.2,0.1,0.4,0.3,0.4c0.8,0.5,1.4,1.3,1.9,2.1c0.4,0.6,2.1,1,2.7,0.7
			c0.9-0.4,1.9-0.8,2.7-1.4c0.5-0.3,0.9-0.9,1.1-1.5c0.4-0.8,1.1-1.2,2-1.4c0.6-0.2,1.2-0.1,1.6,0.6c0.4,0.7,0.3,1.3,0,1.9
			c-0.7,1.3-2,1.8-3.3,2.3c-0.4,0.2-0.9,0.4-1.3,0.6c-0.2,0.1-0.4,0.2-0.6,0.2c-0.8,0-1.6-0.1-2.4,0.1c-0.8,0.1-1.4-0.3-2.2-0.4
			c-0.1,0-0.3-0.2-0.4-0.1c-0.9,0.5-1.5-0.2-2.2-0.5c-0.1,0-0.1-0.1-0.2-0.1c-2,0.1-2.4-1.6-3.1-3c-0.1-0.1-0.1-0.3-0.2-0.3
			C25.7,23.2,25.8,21.6,25.3,19.9z M35.4,19.4c0.3,0,0.6,0,0.9,0c0.8-0.1,1.7-1,1.5-1.8c-0.2-0.9-0.3-1.8-0.7-2.6
			c-0.4-0.7-0.8-1.4-1.8-1.7c-0.8-0.2-1.4,0.2-2.1,0.4c-0.7,0.2-1,0.8-1.2,1.5c-0.2,0.9-0.8,1.7-1.6,2.3c-0.3,0.2-0.6,0.6-0.6,0.7
			c0.1,0.3,0.5,0.5,0.8,0.7C32.2,19.7,33.9,18.9,35.4,19.4z"/>
		<path d="M78.8,45.8c0.6,0.8,1.2,1.6,1.8,2.5c-0.7,0.2-1.1,0-1.5-0.5c-0.4-0.7-0.9-1.3-1.5-1.9c0,0.8,0,1.6,0,2.4
			c-0.3,0-0.6,0-0.9,0c0-1.9,0-3.8,0-5.8c0.4,0,0.9,0,1.3,0c1.2,0,1.8,0.4,1.9,1.2C80.2,44.7,79.9,45.2,78.8,45.8z M77.7,43.4
			c0,0.5,0,1,0,1.5c1,0.1,1.3-0.1,1.3-0.7C79.1,43.6,78.7,43.3,77.7,43.4z"/>
		<path d="M71,42.3c1,2.1,1.8,4,2.7,5.9c-0.6,0.2-1.1,0.1-1.2-0.6c-0.2-0.7-0.6-0.9-1.3-0.9c-0.7,0-1.5-0.2-1.7,0.9
			c-0.1,0.6-0.6,0.8-1.2,0.5C69.1,46.3,70,44.4,71,42.3z M71.8,46c-0.3-0.6-0.5-1.1-0.8-1.8c-0.3,0.7-0.5,1.2-0.8,1.8
			C70.8,46,71.2,46,71.8,46z"/>
		<path d="M62.8,42.6c0.7,0,1.4-0.1,2,0c0.9,0.1,1.4,0.7,1.3,1.6c0,0.9-0.5,1.4-1.4,1.5c-0.3,0-0.7,0-1.2,0c0,0.9,0,1.7,0,2.6
			c-0.3,0-0.5,0-0.8,0C62.8,46.4,62.8,44.5,62.8,42.6z M63.7,43.4c0,0.5,0,1,0,1.5c1.1,0.1,1.5-0.1,1.5-0.7
			C65.2,43.6,64.8,43.4,63.7,43.4z"/>
		<path d="M84.6,48.3c-0.3,0-0.5,0-0.8,0c0-1.9,0-3.8,0-5.7c0.3,0,0.5,0,0.8,0C84.6,44.5,84.6,46.4,84.6,48.3z"/>
	</g>
</g>
</svg>
